<?xml version="1.0" encoding="UTF-8"?>
<svg width="32" height="32" viewBox="0 0 32 32" version="1.1" xmlns="http://www.w3.org/2000/svg">
    <path fill="#007bff" d="M16,2 L4,7 L4,15 C4,22.1797017 9.10603846,28.1393248 16,30 C22.8939615,28.1393248 28,22.1797017 28,15 L28,7 L16,2 Z M16,4.29784946 L25.3333333,8.23045267 L25.3333333,15 C25.3333333,20.8961525 21.0613604,25.8575672 16,27.5933505 C10.9386396,25.8575672 6.66666667,20.8961525 6.66666667,15 L6.66666667,8.23045267 L16,4.29784946 Z"/>
    <path fill="#007bff" d="M14.3333333,15.6666667 L20.3333333,9.66666667 L22,11.3333333 L14.3333333,19 L10,14.6666667 L11.6666667,13 L14.3333333,15.6666667 Z"/>
</svg>
